<svg version="1.1" id="Livello_1" xmlns="http://www.w3.org/2000/svg" xmlns:xlink="http://www.w3.org/1999/xlink" x="0" y="0" viewBox="0 0 600 202" xml:space="preserve"><style>.st2{clip-path:url(#SVGID_2_);fill:#e32213}</style><path d="M243.9 59.73c-3.31-3.42-7.9-5.52-12.7-5.52-9.28 0-16.79 8.06-16.79 17.23s7.57 17.23 16.9 17.23c4.69 0 9.28-2.21 12.59-5.52v5.74c-3.59 2.6-8.01 4.09-12.43 4.09-11.76 0-21.71-9.56-21.71-21.37 0-11.93 9.78-21.71 21.71-21.71 4.64 0 8.73 1.33 12.43 4.09v5.74zm13.54 20.71l-5.03 11.82h-5.08l19.22-43.63 18.72 43.63h-5.14l-4.92-11.82h-17.77zm9-20.99l-7.13 16.68h14.08l-6.95-16.68zm41.76-.71c-1.66-2.87-3.64-4.53-7.18-4.53-3.7 0-6.9 2.65-6.9 6.46 0 3.59 3.7 5.25 6.52 6.52l2.76 1.22c5.41 2.37 10 5.08 10 11.71 0 7.29-5.85 12.87-13.09 12.87-6.68 0-11.65-4.31-12.98-10.77l4.53-1.27c.61 4.25 3.87 7.73 8.34 7.73s8.56-3.42 8.56-8.12c0-4.86-3.81-6.52-7.68-8.28l-2.54-1.1c-4.86-2.21-9.06-4.7-9.06-10.66 0-6.46 5.47-10.6 11.65-10.6 4.64 0 8.56 2.37 10.77 6.46l-3.7 2.36zm17.73 21.7l-5.03 11.82h-5.08l19.22-43.63 18.72 43.63h-5.14l-4.92-11.82h-17.77zm9-20.99l-7.13 16.68h14.08l-6.95-16.68zm27.51 28.5h11.49v4.31H357.8V50.62h4.64v37.33zm54.23-16.62c.11 5.63-.5 10.27-4.31 14.69-3.81 4.42-9.61 6.96-15.41 6.96-11.71 0-21.43-9.72-21.43-21.43 0-11.93 9.72-21.65 21.71-21.65 7.29 0 13.2 3.26 17.62 9l-3.37 3.15c-3.48-4.92-8.17-7.84-14.31-7.84-9.5 0-17.01 8.01-17.01 17.4 0 4.42 1.77 8.62 4.86 11.76 3.04 3.04 7.46 5.3 11.82 5.3 7.24 0 14.86-5.3 14.86-13.03h-12.37v-4.31h17.34zm10.72 20.93h-4.64V50.62h6.02c7.9 0 15.24 2.1 15.24 11.49 0 6.41-4.03 10.94-10.44 11.49l13.26 18.67h-5.69l-12.59-18.28h-1.16v18.27zm0-22.37h1.44c5.25 0 10.55-.99 10.55-7.46 0-6.85-5.03-7.51-10.6-7.51h-1.38v14.97zm31.04 10.55l-5.03 11.82h-5.08l19.22-43.63 18.72 43.63h-5.14l-4.92-11.82h-17.77zm9.01-20.99l-7.13 16.68h14.08l-6.95-16.68zm23.14-10.6l32.48 34.02V50.62h4.64v43.52l-32.48-33.97v32.09h-4.64V48.85zm45.29 1.77h7.84c6.24 0 11.32.83 16.24 5.03 4.75 4.09 6.9 9.67 6.9 15.85 0 6.08-2.21 11.43-6.79 15.52-4.97 4.42-9.94 5.25-16.46 5.25h-7.73V50.62zm8.01 37.33c5.08 0 9.33-.72 13.15-4.31 3.42-3.2 5.19-7.57 5.19-12.21 0-4.75-1.82-9.33-5.41-12.48-3.81-3.37-8.01-4.03-12.92-4.03h-3.37v33.03h3.36zm28.94-37.33h21.6v4.31h-16.96V67.3h16.46v4.31h-16.46v16.35h16.96v4.31h-21.6V50.62zm-356.04 93.89h-4.64v-41.65h6.85c3.59 0 7.29.11 10.33 2.21 3.09 2.15 4.69 5.8 4.69 9.5 0 3.37-1.38 6.79-3.98 8.95-2.82 2.32-6.41 2.76-9.89 2.76h-3.37v18.23zm0-22.53h3.09c5.14 0 9.5-1.55 9.5-7.51 0-6.79-5.47-7.29-10.88-7.29h-1.71v14.8zm24.97 10.71l-5.03 11.82h-5.08l19.22-43.63 18.72 43.63h-5.14l-4.92-11.82h-17.77zm9-20.98l-7.13 16.68h14.08l-6.95-16.68zm22.32-8.84h7.84c6.24 0 11.32.83 16.24 5.03 4.75 4.09 6.9 9.67 6.9 15.85 0 6.08-2.21 11.43-6.79 15.52-4.97 4.42-9.94 5.25-16.46 5.25h-7.73v-41.65zm8.01 37.34c5.08 0 9.33-.72 13.15-4.31 3.42-3.2 5.19-7.57 5.19-12.21 0-4.75-1.82-9.33-5.41-12.48-3.81-3.37-8.01-4.03-12.92-4.03h-3.37v33.03h3.36zm34.57-7.52l-5.03 11.82h-5.08l19.22-43.63 18.72 43.63h-5.14l-4.92-11.82h-17.77zm9.01-20.98l-7.13 16.68h14.08l-6.95-16.68zm22.59-10.61l32.48 34.02v-32.26h4.64v43.52l-32.48-33.97v32.09h-4.64v-43.4zm50.92 31.59l-5.03 11.82h-5.08l19.22-43.63L426 144.51h-5.14l-4.92-11.82h-17.77zm9.01-20.98l-7.13 16.68h14.08l-6.95-16.68z" fill="#8f9094"/><path d="M212.51 185.45h-1.7V158.8h4.7c2.09 0 4.1.14 5.76 1.56 1.63 1.38 2.4 3.39 2.4 5.48 0 1.91-.74 4.03-2.23 5.27-1.63 1.41-3.85 1.7-5.94 1.7h-3.01v12.64zm3.07-14.24c1.73 0 3.29-.21 4.67-1.45 1.17-1.06 1.73-2.44 1.73-4 0-1.66-.67-3.32-2.02-4.31-1.34-1.03-3.04-1.06-4.67-1.06h-2.79v10.82h3.08zm26.13 14.24h-1.59v-2.93h-.07c-1.2 2.09-3.82 3.29-6.22 3.29-4.95 0-8.06-3.85-8.06-8.63 0-4.77 3.08-8.41 7.99-8.41 2.51 0 4.91 1.13 6.29 3.18h.07v-2.83h1.59v16.33zm-14.35-8.27c0 3.75 2.47 7.14 6.43 7.14 4.17 0 6.43-3.39 6.43-7.32 0-3.78-2.58-6.75-6.54-6.75-3.74 0-6.32 3.4-6.32 6.93zm24.78 5.41l5.8-13.47h1.63l-7.46 17.22-7.5-17.22h1.63l5.9 13.47zm10.33-5.16c-.11 4.14 2.76 6.89 6.54 6.89 2.55 0 4.6-1.52 5.76-3.71l1.34.78c-1.48 2.83-4.1 4.42-7.32 4.42-4.84 0-7.92-3.92-7.92-8.56 0-4.56 3.15-8.49 7.92-8.49 4.95 0 7.88 3.96 7.85 8.66h-14.17zm12.59-1.49c-.39-3.01-2.86-5.69-6.22-5.69-3.32 0-6.08 2.62-6.36 5.69h12.58zm14.5-6.82h1.66l6.96 14.78 6.26-14.78h1.63L295.11 195h-1.63l3.92-9.26-7.84-16.62zm34.72 8.17c0 4.84-3.78 8.52-8.59 8.52-4.7 0-8.48-3.85-8.48-8.48 0-4.7 3.75-8.56 8.48-8.56 4.8 0 8.59 3.67 8.59 8.52zm-15.49.03c0 3.71 2.93 7 6.79 7 3.99 0 7.11-3.04 7.11-7 0-4.03-3.08-7.07-7.11-7.07-3.89 0-6.79 3.29-6.79 7.07zm30.83-8.2v9.79c0 1.66.04 3.32-.99 4.7-1.13 1.48-3.04 2.19-4.88 2.19s-3.75-.71-4.88-2.19c-1.03-1.38-.99-3.04-.99-4.7v-9.79h1.59v9.23c0 3.15.35 5.97 4.28 5.97 3.92 0 4.28-2.83 4.28-5.97v-9.23h1.59zm6.79 2.12h.07c.64-1.48 1.8-2.48 3.54-2.48.64 0 1.17.14 1.73.39l-.85 1.41c-.39-.21-.71-.32-1.13-.32-3.57 0-3.36 4.45-3.36 6.86v8.34h-1.59v-16.33h1.59v2.13zm25.14 11.28l5.76-14.28 5.8 14.28 5.66-13.4h1.63l-7.39 17.22-5.76-14.11-5.73 14.11-7.35-17.22h1.63l5.75 13.4zm36.1 2.93h-1.59v-2.93h-.07c-1.2 2.09-3.82 3.29-6.22 3.29-4.95 0-8.06-3.85-8.06-8.63 0-4.77 3.08-8.41 7.99-8.41 2.51 0 4.91 1.13 6.29 3.18h.07v-2.83h1.59v16.33zm-14.35-8.27c0 3.75 2.47 7.14 6.43 7.14 4.17 0 6.43-3.39 6.43-7.32 0-3.78-2.58-6.75-6.54-6.75-3.74 0-6.32 3.4-6.32 6.93zm16.83-8.06h1.66l6.97 14.78 6.26-14.78h1.63L415.68 195h-1.63l3.92-9.26-7.84-16.62z" fill="#1d1d1b"/><defs><path id="SVGID_1_" d="M6.26 93.87c0 49.21 39.9 89.11 89.11 89.11 49.22 0 89.11-39.9 89.11-89.11 0-49.22-39.9-89.11-89.11-89.11S6.26 44.65 6.26 93.87"/></defs><clipPath id="SVGID_2_"><use xlink:href="#SVGID_1_" overflow="visible"/></clipPath><path class="st2" d="M95.37 4.76c-49.22 0-89.11 39.89-89.11 89.11s39.9 89.11 89.11 89.11c49.22 0 89.11-39.9 89.11-89.11.01-49.22-39.89-89.11-89.11-89.11m-31.7 105.59l-11.89-19.8-.01-.03a4.981 4.981 0 0 1 1.7-6.84 4.981 4.981 0 0 1 6.84 1.7l.01.03 10.54 17.69-7.19 7.25zm9.18-9.22L60.78 80.99l-.02-.03a4.99 4.99 0 0 1 1.7-6.84 4.993 4.993 0 0 1 6.84 1.71l.02.03L80.1 93.94l-7.25 7.19zm9.45-9.16l-12.31-20.5-.02-.03a4.981 4.981 0 0 1 1.7-6.84 4.976 4.976 0 0 1 6.84 1.71l.02.03 10.85 18.31-7.08 7.32zm65.03-7.8l-19.14 32.04v28.21l-33.14 33.44V10.85l52.28 52.32v21z"/><path class="st2" d="M137.34 90.55l-11.89 19.8-7.19-7.25 10.54-17.69.02-.03a4.981 4.981 0 0 1 6.84-1.7c2.36 1.41 3.12 4.47 1.71 6.84l-.03.03m-9-9.56l-12.07 20.13-7.25-7.19 10.77-18.08.02-.03a4.99 4.99 0 0 1 6.84-1.71 4.99 4.99 0 0 1 1.7 6.84l-.01.04m-9.2-9.52l-12.31 20.5-7.09-7.32 10.86-18.31.02-.03a4.993 4.993 0 0 1 6.84-1.71 4.981 4.981 0 0 1 1.7 6.84l-.02.03"/></svg>